Coordinates
version=1
nRows=21
nColumns=34
inDegrees=no

Units are S.I. units (second, meters, Newtons, ...)
If the header above contains a line with 'inDegrees', this indicates whether rotational values are in degrees (yes) or radians (no).

endheader
time	pelvis_tilt	pelvis_list	pelvis_rotation	pelvis_tx	pelvis_ty	pelvis_tz	hip_flexion_r	hip_adduction_r	hip_rotation_r	knee_angle_r	ankle_angle_r	subtalar_angle_r	mtp_angle_r	hip_flexion_l	hip_adduction_l	hip_rotation_l	knee_angle_l	ankle_angle_l	subtalar_angle_l	mtp_angle_l	lumbar_extension	lumbar_bending	lumbar_rotation	arm_flex_r	arm_add_r	arm_rot_r	elbow_flex_r	pro_sup_r	arm_flex_l	arm_add_l	arm_rot_l	elbow_flex_l	pro_sup_l
0.74	0.114869	0.137912	-0.0880439	0.756824	0.914	-0.18622	-0.273896	-0.252345	-0.211698	0.700851	-0.0380666	0.268056	-0.00363108	0.246275	0.172193	-0.0906749	0.308656	0.0597696	-0.124942	-0.00364018	-0.411081	-0.298001	-0.138233	-0.0249541	-0.24657	0.146464	0.794275	2.15758	0.0838218	-0.276798	-0.238628	0.693583	2.10868
0.75	0.10777	0.146499	-0.0863659	0.767647	0.914688	-0.185324	-0.229536	-0.262319	-0.185383	0.76688	-0.0677563	0.222678	-0.0036265	0.242172	0.182293	-0.0844746	0.309092	0.065349	-0.132082	-0.00363556	-0.407333	-0.321289	-0.146079	-0.0325518	-0.250298	0.186123	0.793575	2.16423	0.0876885	-0.282272	-0.243778	0.700213	2.10982
0.76	0.100983	0.153342	-0.0862063	0.778149	0.915395	-0.18434	-0.183106	-0.269822	-0.157983	0.832512	-0.0881804	0.18219	-0.00362192	0.236922	0.190553	-0.0784463	0.307411	0.0698254	-0.140402	-0.00363094	-0.404358	-0.342672	-0.152944	-0.0378895	-0.256334	0.229112	0.795788	2.17056	0.0915188	-0.28759	-0.248612	0.707222	2.11025
0.77	0.0948013	0.158563	-0.0874038	0.788346	0.916127	-0.183284	-0.13569	-0.274818	-0.130292	0.896357	-0.0984904	0.147279	-0.00361734	0.230523	0.197029	-0.0730059	0.304288	0.073698	-0.149097	-0.00362632	-0.402352	-0.362137	-0.158935	-0.041291	-0.264023	0.272962	0.800618	2.17632	0.0954547	-0.292744	-0.25289	0.71426	2.10992
0.78	0.0893864	0.162293	-0.0896224	0.798257	0.916875	-0.182186	-0.0882663	-0.277287	-0.103124	0.957134	-0.098837	0.117678	-0.00361276	0.22305	0.20178	-0.0684885	0.300346	0.0775457	-0.157166	-0.0036217	-0.401408	-0.379677	-0.164197	-0.0432356	-0.272571	0.314985	0.807507	2.18124	0.0996478	-0.297711	-0.256407	0.721002	2.10894
0.79	0.084759	0.164667	-0.0923925	0.807924	0.91766	-0.181071	-0.0416555	-0.27727	-0.0772877	1.01374	-0.0903469	0.0923168	-0.00360819	0.214645	0.204889	-0.0650985	0.296099	0.0819166	-0.163585	-0.00361708	-0.401511	-0.395296	-0.168901	-0.0442958	-0.281143	0.352582	0.815701	2.185	0.104233	-0.302447	-0.259028	0.727185	2.10752
0.8	0.080826	0.165827	-0.0951657	0.817394	0.918495	-0.179969	0.00350937	-0.274892	-0.0535551	1.06527	-0.0749175	0.0696192	-0.00360361	0.205494	0.206465	-0.0628746	0.291921	0.0872354	-0.167485	-0.00361247	-0.402556	-0.409007	-0.173239	-0.0450597	-0.288959	0.383544	0.824355	2.18728	0.109306	-0.306891	-0.26069	0.732625	2.10597
0.81	0.0774126	0.165911	-0.0973799	0.826715	0.919382	-0.178911	0.0467824	-0.270376	-0.0326024	1.11107	-0.0548756	0.047877	-0.00359904	0.195809	0.206652	-0.0616755	0.288046	0.0937425	-0.168297	-0.00360785	-0.404367	-0.420835	-0.177415	-0.0460497	-0.295383	0.406282	0.832646	2.18779	0.114904	-0.310973	-0.261408	0.737231	2.10467
0.82	0.0743016	0.165052	-0.0985235	0.835931	0.920317	-0.177925	0.0878903	-0.264029	-0.0149554	1.15067	-0.0325846	0.0256256	-0.00359447	0.18581	0.205624	-0.0611946	0.284591	0.101472	-0.16584	-0.00360324	-0.406739	-0.430816	-0.181633	-0.0476532	-0.299989	0.419977	0.839886	2.18635	0.121004	-0.314621	-0.26125	0.741004	2.10397
0.83	0.0712718	0.16337	-0.098192	0.845078	0.92129	-0.177039	0.126708	-0.256218	-0.000940866	1.18383	-0.01009	0.00194421	-0.0035899	0.175711	0.203571	-0.0609983	0.281593	0.110262	-0.160345	-0.00359863	-0.409461	-0.438998	-0.186078	-0.0500759	-0.302588	0.424621	0.845595	2.18289	0.127519	-0.317779	-0.260317	0.74403	2.10412
0.84	0.06813	0.160968	-0.0961277	0.854185	0.922286	-0.176271	0.163228	-0.247332	0.00934374	1.21048	0.0111226	-0.0233747	-0.00358533	0.16571	0.200687	-0.0605846	0.279043	0.119799	-0.152405	-0.00359402	-0.412345	-0.445437	-0.190898	-0.0533272	-0.303228	0.420953	0.849531	2.17757	0.134318	-0.320413	-0.258708	0.746456	2.10528
0.85	0.0647306	0.157934	-0.0922419	0.863271	0.923288	-0.175636	0.197531	-0.237742	0.0160369	1.23067	0.0302204	-0.0498113	-0.00358076	0.155978	0.197153	-0.0594509	0.276915	0.129673	-0.142881	-0.00358941	-0.415231	-0.450207	-0.196181	-0.0572365	-0.302163	0.41032	0.851685	2.17067	0.141239	-0.322518	-0.2565	0.748469	2.10741
0.86	0.0609847	0.154346	-0.0866151	0.872342	0.924275	-0.175135	0.229756	-0.227771	0.0194947	1.24459	0.0469746	-0.0762493	-0.00357619	0.146651	0.193129	-0.0571636	0.27518	0.139446	-0.132765	-0.0035848	-0.417995	-0.45341	-0.201945	-0.0614974	-0.299791	0.394476	0.852228	2.16267	0.148111	-0.324125	-0.253734	0.750273	2.11032
0.87	0.0568607	0.150274	-0.0794786	0.881398	0.925231	-0.174762	0.260074	-0.21767	0.02025	1.25249	0.0616072	-0.101211	-0.00357163	0.137823	0.188751	-0.0534156	0.273811	0.14872	-0.123038	-0.00358019	-0.420542	-0.455179	-0.208122	-0.0657276	-0.296594	0.375355	0.851447	2.1541	0.15477	-0.325288	-0.250418	0.75206	2.11371
0.88	0.0523807	0.14579	-0.0711801	0.890433	0.926139	-0.174503	0.288653	-0.207604	0.0189561	1.25466	0.0745945	-0.123136	-0.00356706	0.129533	0.18412	-0.0480665	0.272774	0.157193	-0.114529	-0.00357559	-0.422804	-0.455682	-0.214566	-0.0695346	-0.293062	0.354847	0.849682	2.14551	0.161079	-0.326079	-0.246543	0.753992	2.11721
0.89	0.047614	0.140968	-0.0621389	0.899436	0.926986	-0.174334	0.315629	-0.197652	0.0163226	1.25143	0.0864809	-0.140646	-0.0035625	0.121753	0.179313	-0.041159	0.272021	0.164703	-0.10781	-0.00357098	-0.424745	-0.455123	-0.221064	-0.072574	-0.289639	0.334608	0.847268	2.13742	0.166937	-0.32657	-0.24211	0.756187	2.12042
0.9	0.0426694	0.135882	-0.0527982	0.9084	0.927764	-0.174225	0.341085	-0.187813	0.0130548	1.24313	0.0977439	-0.152742	-0.00355794	0.114386	0.174371	-0.032914	0.271474	0.171247	-0.103132	-0.00356638	-0.426356	-0.453722	-0.227361	-0.0745923	-0.286677	0.315918	0.844498	2.13021	0.172282	-0.326824	-0.237155	0.75871	2.12303
0.91	0.0376855	0.130607	-0.0435807	0.917321	0.928467	-0.174147	0.365033	-0.178028	0.0098012	1.23004	0.108724	-0.158906	-0.00355338	0.107265	0.169317	-0.0237011	0.271026	0.176979	-0.100413	-0.00356178	-0.427668	-0.451712	-0.233185	-0.0754509	-0.28441	0.299604	0.841609	2.12415	0.177094	-0.326879	-0.231768	0.76158	2.12483
0.92	0.0328171	0.125219	-0.0348522	0.9262	0.929096	-0.174066	0.387415	-0.168199	0.0071162	1.21246	0.119615	-0.159109	-0.00354882	0.100164	0.164152	-0.0139908	0.270535	0.182179	-0.0992754	-0.00355718	-0.428745	-0.449313	-0.238284	-0.0751283	-0.282945	0.286034	0.838776	2.1194	0.181387	-0.32675	-0.226105	0.764777	2.12576
0.93	0.0282211	0.119795	-0.0268969	0.935042	0.929651	-0.173956	0.40811	-0.158216	0.00543665	1.19063	0.130483	-0.153734	-0.00354426	0.0928201	0.158875	-0.00429135	0.269822	0.187192	-0.0991348	-0.00355258	-0.429682	-0.446729	-0.242446	-0.0737064	-0.282277	0.27517	0.836121	2.11597	0.185195	-0.326427	-0.220377	0.76825	2.12588
0.94	0.0240392	0.114414	-0.019905	0.943857	0.930137	-0.173795	0.426966	-0.147993	0.00507161	1.16476	0.141303	-0.143457	-0.0035397	0.0849523	0.153491	0.00492022	0.268679	0.192354	-0.0993222	-0.00354798	-0.430592	-0.444135	-0.245526	-0.071343	-0.282314	0.266662	0.833724	2.11375	0.188565	-0.325885	-0.214823	0.771937	2.1254
